<svg xmlns="http://www.w3.org/2000/svg" viewBox="0 0 45 45">
  <g fill="#000" stroke="#000" stroke-width="1.5" stroke-linecap="round" stroke-linejoin="round">
    <path d="M9 39h27v-3H9v3zm3.5-7l1.5-2.5h17l1.5 2.5H12.5zm-2.5-5h25v2.5H10V27z" stroke-linecap="butt"/>
    <path d="M11 14V9h4v2h5V9h5v2h5V9h4v5" stroke-linecap="butt"/>
    <path d="M34 14l-3 3H14l-3-3"/>
    <path d="M31 17v12.5H14V17" stroke-linecap="butt" stroke-linejoin="miter"/>
    <path d="M11 14h23" fill="none" stroke-linejoin="miter"/>
    <path d="M12 35.5h21M13 31.5h19M14 29.5h17M14 16.5h17M11 14h23" fill="none" stroke="#fff" stroke-width="1" stroke-linejoin="miter"/>
  </g>
</svg>
